<svg xmlns="http://www.w3.org/2000/svg" version="1.1" x="0" y="0" width="512" height="512" viewBox="0 0 512 512" enable-background="new 0 0 512 512" xml:space="preserve"><path d="M462 280.7v-49.4l-46.4-16.5c-3.9-15.1-9.9-29.3-17.7-42.4l0.1-0.1 21.2-44.5 -35-35 -44.5 21.2 -0.1 0.1c-13.1-7.8-27.4-13.8-42.4-17.7L280.7 50h-49.4L214.8 96.4c-15.1 3.9-29.3 9.9-42.4 17.7l-0.1-0.1 -44.5-21.2 -35 35 21.2 44.5 0.1 0.1c-7.8 13.1-13.8 27.4-17.7 42.4L50 231.3v49.4l46.4 16.5c3.9 15.1 9.9 29.3 17.7 42.4l-0.1 0.1 -21.2 44.5 35 35 44.5-21.2 0.1-0.1c13.1 7.8 27.4 13.8 42.4 17.7L231.3 462h49.4l16.5-46.4c15.1-3.9 29.3-9.9 42.4-17.7l0.1 0.1 44.5 21.2 35-35 -21.2-44.5 -0.1-0.1c7.8-13.1 13.8-27.4 17.7-42.4L462 280.7zM256 338.4c-45.5 0-82.4-36.9-82.4-82.4 0-45.5 36.9-82.4 82.4-82.4 45.5 0 82.4 36.9 82.4 82.4C338.4 301.5 301.5 338.4 256 338.4z"/></svg>
